<svg width="30" height="30" viewBox="0 0 30 30" fill="none" xmlns="http://www.w3.org/2000/svg">
<path fill-rule="evenodd" clip-rule="evenodd" d="M17.7273 9.54546C19.2336 9.54546 20.4546 10.7665 20.4546 12.2727V17.7273C20.4546 19.2335 19.2336 20.4545 17.7273 20.4545H12.2727C10.7665 20.4545 9.54547 19.2335 9.54547 17.7273V12.2727C9.54547 10.7665 10.7665 9.54546 12.2727 9.54546H17.7273ZM16.3637 12.2727C17.1168 12.2727 17.7273 12.8832 17.7273 13.6364V16.3636C17.7273 17.1168 17.1168 17.7273 16.3637 17.7273H13.6364C12.8832 17.7273 12.2727 17.1168 12.2727 16.3636V13.6364C12.2727 12.8832 12.8832 12.2727 13.6364 12.2727H16.3637Z" fill="#DCDCDC"/>
<path fill-rule="evenodd" clip-rule="evenodd" d="M13.6364 1.36364C13.6364 0.610527 14.2469 0 15 0C15.7531 0 16.3636 0.610527 16.3636 1.36364V4.09091H19.0909V1.36364C19.0909 0.610527 19.7014 0 20.4545 0C21.2077 0 21.8182 0.610527 21.8182 1.36364V4.09091C24.0776 4.09091 25.9091 5.92248 25.9091 8.18182H28.6364C29.3895 8.18182 30 8.79233 30 9.54545C30 10.2986 29.3895 10.9091 28.6364 10.9091H25.9091V13.6364H28.6364C29.3895 13.6364 30 14.2469 30 15C30 15.7531 29.3895 16.3636 28.6364 16.3636H25.9091V19.0909H28.6364C29.3895 19.0909 30 19.7014 30 20.4545C30 21.2077 29.3895 21.8182 28.6364 21.8182H25.9091C25.9091 24.0776 24.0776 25.9091 21.8182 25.9091V28.6364C21.8182 29.3895 21.2077 30 20.4545 30C19.7014 30 19.0909 29.3895 19.0909 28.6364V25.9091H16.3636V28.6364C16.3636 29.3895 15.7531 30 15 30C14.2469 30 13.6364 29.3895 13.6364 28.6364V25.9091H10.9091V28.6364C10.9091 29.3895 10.2986 30 9.54545 30C8.79233 30 8.18182 29.3895 8.18182 28.6364V25.9091C5.92248 25.9091 4.09091 24.0776 4.09091 21.8182H1.36364C0.610527 21.8182 0 21.2077 0 20.4545C0 19.7014 0.610527 19.0909 1.36364 19.0909H4.09091V16.3636H1.36364C0.610527 16.3636 0 15.7531 0 15C0 14.2469 0.610527 13.6364 1.36364 13.6364H4.09091V10.9091H1.36364C0.610527 10.9091 0 10.2986 0 9.54545C0 8.79233 0.610527 8.18182 1.36364 8.18182H4.09091C4.09091 5.92248 5.92248 4.09091 8.18182 4.09091V1.36364C8.18182 0.610527 8.79233 0 9.54545 0C10.2986 0 10.9091 0.610527 10.9091 1.36364V4.09091H13.6364V1.36364ZM21.8182 6.81818C22.5713 6.81818 23.1818 7.42871 23.1818 8.18182V21.8182C23.1818 22.5713 22.5713 23.1818 21.8182 23.1818H8.18182C7.4287 23.1818 6.81818 22.5713 6.81818 21.8182V8.18182C6.81818 7.4287 7.42871 6.81818 8.18182 6.81818H21.8182Z" fill="#DCDCDC"/>
</svg>
