<svg width="34" height="30" viewBox="0 0 34 30" fill="none" xmlns="http://www.w3.org/2000/svg">
<path d="M4.60399 29.2431C4.60399 29.2431 4.57392 30 5.31326 30C6.23306 30 13.8484 29.99 13.8484 29.99L13.8609 22.9962C13.8609 22.9962 13.7406 21.8434 14.8596 21.8434H18.401C19.7243 21.8434 19.6428 22.9962 19.6428 22.9962L19.6278 29.9674C19.6278 29.9674 26.8484 29.9674 27.9824 29.9674C28.921 29.9674 28.8784 29.0251 28.8784 29.0251V16.1316L17.104 5.6579L4.60399 16.1316V29.2431Z" fill="#DCDCDC"/>
<path d="M0 15.1566C0 15.1566 1.0614 17.1128 3.37594 15.1566L17.208 3.45489L30.1767 15.084C32.8559 17.0163 33.8596 15.084 33.8596 15.084L17.208 0L0 15.1566Z" fill="#DCDCDC"/>
<path d="M29.8621 3.42732H26.5263L26.5401 7.47243L29.8621 10.2907V3.42732Z" fill="#DCDCDC"/>
</svg>
