<svg width="60" height="60" viewBox="0 0 60 60" fill="none" xmlns="http://www.w3.org/2000/svg">
<rect width="60" height="60" rx="30" fill="#B4F99C"/>
<path d="M24 15C24.3978 15 24.7794 15.158 25.0607 15.4393C25.342 15.7206 25.5 16.1022 25.5 16.5C25.5 16.8978 25.342 17.2794 25.0607 17.5607C24.7794 17.842 24.3978 18 24 18H18V24C18 24.3978 17.842 24.7794 17.5607 25.0607C17.2794 25.342 16.8978 25.5 16.5 25.5C16.1022 25.5 15.7206 25.342 15.4393 25.0607C15.158 24.7794 15 24.3978 15 24V16.5C15 16.1022 15.158 15.7206 15.4393 15.4393C15.7206 15.158 16.1022 15 16.5 15H24ZM24 42H18V36C18 35.6022 17.842 35.2206 17.5607 34.9393C17.2794 34.658 16.8978 34.5 16.5 34.5C16.1022 34.5 15.7206 34.658 15.4393 34.9393C15.158 35.2206 15 35.6022 15 36V43.5C15 43.8978 15.158 44.2794 15.4393 44.5607C15.7206 44.842 16.1022 45 16.5 45H24C24.3978 45 24.7794 44.842 25.0607 44.5607C25.342 44.2794 25.5 43.8978 25.5 43.5C25.5 43.1022 25.342 42.7206 25.0607 42.4393C24.7794 42.158 24.3978 42 24 42ZM43.5 34.5C43.1022 34.5 42.7206 34.658 42.4393 34.9393C42.158 35.2206 42 35.6022 42 36V42H36C35.6022 42 35.2206 42.158 34.9393 42.4393C34.658 42.7206 34.5 43.1022 34.5 43.5C34.5 43.8978 34.658 44.2794 34.9393 44.5607C35.2206 44.842 35.6022 45 36 45H43.5C43.8978 45 44.2794 44.842 44.5607 44.5607C44.842 44.2794 45 43.8978 45 43.5V36C45 35.6022 44.842 35.2206 44.5607 34.9393C44.2794 34.658 43.8978 34.5 43.5 34.5ZM43.5 25.5C43.8978 25.5 44.2794 25.342 44.5607 25.0607C44.842 24.7794 45 24.3978 45 24V16.5C45 16.1022 44.842 15.7206 44.5607 15.4393C44.2794 15.158 43.8978 15 43.5 15H36C35.6022 15 35.2206 15.158 34.9393 15.4393C34.658 15.7206 34.5 16.1022 34.5 16.5C34.5 16.8978 34.658 17.2794 34.9393 17.5607C35.2206 17.842 35.6022 18 36 18H42V24C42 24.3978 42.158 24.7794 42.4393 25.0607C42.7206 25.342 43.1022 25.5 43.5 25.5ZM43.5 28.5H16.5C16.1022 28.5 15.7206 28.658 15.4393 28.9393C15.158 29.2206 15 29.6022 15 30C15 30.3978 15.158 30.7794 15.4393 31.0607C15.7206 31.342 16.1022 31.5 16.5 31.5H43.5C43.8978 31.5 44.2794 31.342 44.5607 31.0607C44.842 30.7794 45 30.3978 45 30C45 29.6022 44.842 29.2206 44.5607 28.9393C44.2794 28.658 43.8978 28.5 43.5 28.5Z" fill="#0F0F0F"/>
</svg>
