<svg width="32" height="30" viewBox="0 0 32 30" fill="none" xmlns="http://www.w3.org/2000/svg">
<path d="M8.07923 2.05409L7.58785 5.89372H24.4162L23.9249 2.05409C23.9249 0.892772 22.9878 0 21.8265 0H10.1305C8.96915 0 8.07637 0.892772 8.07637 2.05409H8.07923ZM2.05409 7.99067H29.9529C31.1142 7.99067 32.007 8.88344 32.007 10.0448V22.2764C32.007 23.4378 31.1142 24.3305 29.9529 24.3305H26.1589V30H5.84801V24.3305H2.05409C0.892772 24.3305 0 23.4378 0 22.2764V10.0448C0 8.88344 0.892772 7.99067 2.05409 7.99067ZM24.1048 27.9445V14.6872H7.90068V27.9445H24.1048ZM21.6951 18.5254H10.089C9.82049 18.5254 9.59766 18.2568 9.59766 17.9897V17.3641C9.59766 17.0955 9.82049 16.8727 10.089 16.8727H21.6951C21.9636 16.8727 22.2307 17.0955 22.2307 17.3641V17.9897C22.2307 18.2583 21.9622 18.5254 21.6951 18.5254ZM21.6951 22.2307H10.089C9.82049 22.2307 9.59766 21.9622 9.59766 21.6951V21.0694C9.59766 20.8009 9.82049 20.578 10.089 20.578H21.6951C21.9636 20.578 22.2307 20.8009 22.2307 21.0694V21.6951C22.2307 21.9636 21.9622 22.2307 21.6951 22.2307ZM21.6951 25.9347H10.089C9.82049 25.9347 9.59766 25.6661 9.59766 25.399V24.7734C9.59766 24.5048 9.82049 24.282 10.089 24.282H21.6951C21.9636 24.282 22.2307 24.5048 22.2307 24.7734V25.399C22.2307 25.6676 21.9622 25.9347 21.6951 25.9347Z" fill="#25262A"/>
</svg>
